# xmcd
#
# Track frame offsets: 
#        150
#        27217
#        50155
#        94237
#        109185
#        126862
#        144720
#        173357
#
# Disc length: 2589 seconds
#
# Revision: 0
# Processed by: cddbd v1.5.2PL0 Copyright (c) Steve Scherf et al.
# Submitted via: ExactAudioCopy v0.99pb3
#
DISCID=6b0a1b08
DTITLE=Fred Wesley and The J.B.'s - Damn Right I Am Somebody
DYEAR=1974
DGENRE=R&B
TTITLE0=Damn Right I Am Somebody
TTITLE1=Blow Your Head
TTITLE2=I'm Paying Taxes, What Am I Buyin'
TTITLE3=Same Beat, Part 1
TTITLE4=If You Don't Get It The First Time, Back Up and Try It Again, Pa
TTITLE4=rrty
TTITLE5=Make Me What You Want Me To Be
TTITLE6=Going To Get A Thrill
TTITLE7=You Sure Love To Ball
EXTD=
EXTT0=
EXTT1=
EXTT2=
EXTT3=
EXTT4=
EXTT5=
EXTT6=
EXTT7=
PLAYORDER=
